<?xml version="1.0" encoding="UTF-8"?>
<svg width="280" height="280" viewBox="0 0 280 280" fill="none" xmlns="http://www.w3.org/2000/svg">
<rect width="280" height="280" fill="#EDF2F7"/>
<path d="M68.2942 144.584C84.2584 192.029 136.839 217.934 185.724 202.435C201.992 197.272 215.8 188.172 226.404 176.584C216.194 199.59 196.239 218.391 169.778 226.775C120.893 242.274 68.3213 216.377 52.3483 168.933C41.691 137.273 50.0305 104.03 71.2743 80.8089C62.6209 100.307 60.9656 122.822 68.2942 144.584ZM133.269 88.4061C112.097 78.6433 86.7818 87.3859 76.7239 107.94C73.3773 114.777 72.1425 122.061 72.76 129.094C68.1335 118.607 67.9904 106.312 73.4309 95.1889C83.4889 74.6434 108.804 65.8918 129.976 75.6546C144.096 82.169 152.812 95.2695 154.056 109.372C150.128 100.477 142.978 92.8892 133.269 88.4061ZM173.617 150.016C198.843 128.119 200.999 90.5358 178.449 66.0529C170.942 57.9098 161.635 52.2455 151.639 49.1136C168.615 48.9972 185.563 55.6906 197.769 68.9342C220.328 93.4081 218.171 131 192.946 152.888C176.123 167.492 153.277 171.42 133.242 165.147C147.631 165.049 162.047 160.056 173.617 150.016Z" fill="#0079C5"/>
<path d="M169.654 112.832C171.095 126.38 167.22 139.266 159.659 149.547C175.023 138.63 184.169 120.322 182.065 100.626C178.924 71.0968 151.703 49.6296 121.279 52.6809C104.814 54.3365 90.7827 62.8374 81.8701 74.9625C89.5301 69.5218 98.7383 65.9156 108.858 64.8955C139.283 61.8441 166.504 83.3023 169.654 112.832ZM136.196 194.477C175.668 206.271 217.519 184.786 229.671 146.478C236.248 125.754 232.776 104.349 221.949 87.195C224.874 99.3111 224.634 112.313 220.588 125.065C208.437 163.364 166.594 184.858 127.122 173.064C109.011 167.65 94.559 156.169 85.3783 141.637C91.2479 165.914 109.87 186.612 136.196 194.477Z" fill="#00B950"/>
</svg>